Coordinates
version=1
nRows=10
nColumns=33
inDegrees=yes

Units are S.I. units (second, meters, Newtons, ...)
Angles are in degrees.

endheader
time	ground_thorax_rot_x	ground_thorax_rot_y	ground_thorax_rot_z	ground_thorax_tx	ground_thorax_ty	ground_thorax_tz	clav_prot_r	clav_elev_r	scapula_abduction_r	scapula_elevation_r	scapula_upward_rot_r	scapula_winging_r	shoulder_elv_r	plane_of_elev_r	axial_rot_r	elbow_flexion_r	pro_sup_r	wrist_flex_r	wrist_dev_r	clav_prot_l	clav_elev_l	scapula_abduction_l	scapula_elevation_l	scapula_upward_rot_l	scapula_winging_l	shoulder_elv_l	plane_of_elev_l	axial_rot_l	elbow_flexion_l	pro_sup_l	wrist_flex_l	wrist_dev_l
      6.14000000	     -1.61944270	      2.02724358	     11.78625689	     -0.11239957	      1.02875475	      0.01296731	     11.36500589	    -12.59734810	     23.74249179	     -8.19156263	      7.62826095	     -5.17558795	    -20.88725298	    -68.13882216	    116.55997678	    -73.66231510	   -160.78906956	      9.21942394	     -7.44496625	     15.42783795	     -6.62803302	    -21.83737106	    -14.02021111	    -32.66611679	      3.61506148	     59.33752006	    -16.56252880	      7.67706960	     55.29336504	     13.04487634	     17.54312817	    -11.61176245
      6.15000000	     -1.44707612	      1.90837471	     11.92458124	     -0.11315834	      1.02831069	      0.01284332	     11.17068837	    -11.94519451	     23.10634564	     -7.40246982	      7.06056682	     -5.25609656	    -21.71756721	    -69.04970508	    116.71123134	    -75.39431306	   -160.74583356	      9.79421664	     -7.73271871	     15.17030300	     -6.02367798	    -21.45129882	    -14.80813563	    -33.12403317	      3.38652266	     59.14352823	    -17.35720340	      7.53784821	     57.25306456	     12.78593526	     17.43959663	    -11.97234237
      6.16000000	     -1.36646966	      1.70284653	     11.88633710	     -0.11324493	      1.02915030	      0.01269101	     10.93457042	    -12.13342791	     22.30749976	     -7.30011960	      6.32356625	     -4.83900608	    -23.32866467	    -70.14538598	    115.57657526	    -76.71031322	   -160.50235097	     11.79853922	    -10.20179906	     14.32560033	     -5.84416225	    -19.97273522	    -14.99561635	    -33.07455855	      2.67211973	     59.57303932	    -19.15272712	      6.51597199	     59.32308093	     12.21227490	     16.43203392	    -12.38663910
      6.17000000	     -1.18941868	      1.58180720	     12.00816084	     -0.11397818	      1.02867599	      0.01259327	     10.73057124	    -11.45669493	     21.65248530	     -6.48063384	      5.75062475	     -4.90611657	    -24.15521505	    -71.04904964	    115.70850679	    -78.26215411	   -160.37284908	     12.36006757	    -10.51140128	     14.08117237	     -5.24132541	    -19.59744345	    -15.78023786	    -33.51585484	      2.43741491	     59.38469001	    -19.99209361	      6.36218104	     61.14981603	     12.00529999	     16.30950902	    -12.75992248
      6.18000000	     -1.03807629	      1.54702035	     12.07580693	     -0.11431244	      1.02909119	      0.01254524	     10.51795913	    -11.37273820	     20.77907625	     -6.03868215	      4.78591793	     -4.58676813	    -25.54795583	    -71.94246009	    114.61582081	    -79.45965090	   -159.68628241	     14.29240845	    -12.79629505	     13.44187462	     -5.00877407	    -18.47181496	    -16.03171017	    -33.51572132	      1.90223036	     59.77971097	    -21.63119269	      5.02654263	     62.94262635	     11.81865656	     15.31020850	    -13.51373137
      6.19000000	     -0.85766731	      1.31340303	     11.97374300	     -0.11417754	      1.02946394	      0.01231401	     10.10551022	    -11.14152544	     19.96651926	     -5.75308641	      4.56624192	     -4.35952142	    -27.47384340	    -73.15022934	    113.62440873	    -80.37207158	   -158.65050653	     16.41716449	    -15.06485184	     12.63404546	     -4.53904107	    -17.01981155	    -16.45163690	    -33.38243859	      1.23957686	     59.81263064	    -22.96023457	      4.24968906	     64.48049941	     11.62455560	     14.07512177	    -14.35563579
      6.20000000	     -0.73650818	      1.14190037	     12.06180651	     -0.11458461	      1.02949921	      0.01228942	     10.00841893	    -10.67917291	     19.45787896	     -5.08852695	      3.92703967	     -4.35426649	    -28.99760994	    -73.76374591	    112.68728364	    -81.18528238	   -157.79689987	     17.85312987	    -16.49578285	     12.12359322	     -4.13552424	    -16.11951257	    -16.92554692	    -33.51964266	      0.79749121	     59.93977534	    -24.41253197	      3.52997211	     66.12716556	     11.55208324	     13.29025075	    -15.17871435
      6.21000000	     -0.62071163	      0.83957295	     11.93040073	     -0.11463109	      1.02983077	      0.01203213	      9.75633753	    -10.41489195	     18.94090881	     -4.79169372	      3.76611946	     -4.26045592	    -31.14708617	    -74.72672720	    111.41802221	    -81.67792143	   -156.33294806	     20.04118000	    -18.74396283	     11.39773870	     -3.66952372	    -14.79730304	    -17.36966965	    -33.44670346	      0.19372165	     60.05785725	    -25.81169125	      2.80436468	     67.55089323	     11.72538234	     12.02066085	    -16.39760417
      6.22000000	     -0.43163336	      0.67420562	     12.12788926	     -0.11516488	      1.02964629	      0.01191862	      9.58232145	     -9.74989639	     18.29060141	     -3.93715553	      3.12043668	     -4.26770363	    -31.96599420	    -75.43804041	    111.32785387	    -82.36357141	   -156.01197514	     20.56987856	    -19.14977921	     11.13655825	     -3.16016902	    -14.36651727	    -18.09294909	    -33.90568692	     -0.08636674	     59.81031363	    -26.84570021	      2.64871441	     68.94886831	     11.68200846	     11.82603685	    -16.84069727
      6.23000000	     -0.31615598	      0.55481219	     11.91547450	     -0.11509290	      1.03022200	      0.01194009	      9.33957931	     -9.65544325	     17.60701911	     -3.64394533	      2.59523858	     -4.01846461	    -34.05080780	    -76.06109119	    109.54362777	    -82.48468309	   -153.69636974	     23.86107079	    -22.49388269	     10.38787318	     -2.89376084	    -12.96128433	    -18.22652719	    -33.57174501	     -0.66058897	     60.19327335	    -28.46828876	      1.37599711	     70.02442329	     12.47078448	     10.04678367	    -18.84307967
